HIERARCHY
ROOT Hips
{
	OFFSET 0.000000 89.005402 0.000000
	CHANNELS 6 Xposition Yposition Zposition Xrotation Yrotation Zrotation
	JOINT Spine
	{
		OFFSET 0.116900 10.681000 0.373400
		CHANNELS 3 Xrotation Yrotation Zrotation
		JOINT Spine1
		{
			OFFSET 0.000000 13.840401 0.053500
			CHANNELS 3 Xrotation Yrotation Zrotation
			JOINT Spine2
			{
				OFFSET 0.000000 14.712700 -0.366200
				CHANNELS 3 Xrotation Yrotation Zrotation
				JOINT Neck
				{
					OFFSET 0.000000 35.415497 -3.314200
					CHANNELS 3 Xrotation Yrotation Zrotation
					JOINT Head
					{
						OFFSET 0.000000 16.899200 1.218300
						CHANNELS 3 Xrotation Yrotation Zrotation
						JOINT HeadTop_End
						{
							OFFSET 0.000000 22.206207 2.192500
							CHANNELS 3 Xrotation Yrotation Zrotation
							End Site
							{
								OFFSET 0.000000 22.314178 0.000000
							}
						}
					}
				}
				JOINT LeftShoulder
				{
					OFFSET 12.896400 26.716293 -4.548400
					CHANNELS 3 Xrotation Yrotation Zrotation
					JOINT LeftArm
					{
						OFFSET 19.027000 -4.857010 -1.718400
						CHANNELS 3 Xrotation Yrotation Zrotation
						JOINT LeftForeArm
						{
							OFFSET 24.179897 0.000000 0.000000
							CHANNELS 3 Xrotation Yrotation Zrotation
							JOINT LeftHand
							{
								OFFSET 27.156403 0.000000 0.000000
								CHANNELS 3 Xrotation Yrotation Zrotation
								JOINT LeftHandIndex1
								{
									OFFSET 16.441200 0.000000 0.000000
									CHANNELS 3 Xrotation Yrotation Zrotation
									JOINT LeftHandIndex2
									{
										OFFSET 4.821899 0.000000 0.000000
										CHANNELS 3 Xrotation Yrotation Zrotation
										JOINT LeftHandIndex3
										{
											OFFSET 6.386497 0.000000 0.000000
											CHANNELS 3 Xrotation Yrotation Zrotation
											JOINT LeftHandIndex4
											{
												OFFSET 5.188988 0.000000 0.000000
												CHANNELS 3 Xrotation Yrotation Zrotation
												End Site
												{
													OFFSET -0.178703 5.185913 0.000177
												}
											}
										}
									}
								}
								JOINT LeftHandThumb1
								{
									OFFSET 6.534897 -5.032593 5.900300
									CHANNELS 3 Xrotation Yrotation Zrotation
									JOINT LeftHandThumb2
									{
										OFFSET 3.818176 -2.204422 2.204423
										CHANNELS 3 Xrotation Yrotation Zrotation
										JOINT LeftHandThumb3
										{
											OFFSET 3.252098 -1.877594 1.877601
											CHANNELS 3 Xrotation Yrotation Zrotation
											JOINT LeftHandThumb4
											{
												OFFSET 5.251778 -3.032120 3.032117
												CHANNELS 3 Xrotation Yrotation Zrotation
												End Site
												{
													OFFSET 0.000023 6.780014 0.000000
												}
											}
										}
									}
								}
							}
						}
					}
				}
				JOINT RightShoulder
				{
					OFFSET -12.896300 26.716293 -4.548400
					CHANNELS 3 Xrotation Yrotation Zrotation
					JOINT RightArm
					{
						OFFSET -19.027000 -4.857010 -1.718400
						CHANNELS 3 Xrotation Yrotation Zrotation
						JOINT RightForeArm
						{
							OFFSET -24.179897 0.000000 0.000000
							CHANNELS 3 Xrotation Yrotation Zrotation
							JOINT RightHand
							{
								OFFSET -27.156403 0.000000 0.000000
								CHANNELS 3 Xrotation Yrotation Zrotation
								JOINT RightHandThumb1
								{
									OFFSET -6.591202 -4.852203 5.988100
									CHANNELS 3 Xrotation Yrotation Zrotation
									JOINT RightHandThumb2
									{
										OFFSET -3.818176 -2.204422 2.204423
										CHANNELS 3 Xrotation Yrotation Zrotation
										JOINT RightHandThumb3
										{
											OFFSET -3.252098 -1.877594 1.877601
											CHANNELS 3 Xrotation Yrotation Zrotation
											JOINT RightHandThumb4
											{
												OFFSET -5.251778 -3.032120 3.032117
												CHANNELS 3 Xrotation Yrotation Zrotation
												End Site
												{
													OFFSET -0.000023 6.780014 0.000000
												}
											}
										}
									}
								}
								JOINT RightHandIndex1
								{
									OFFSET -16.029404 0.000000 0.000000
									CHANNELS 3 Xrotation Yrotation Zrotation
									JOINT RightHandIndex2
									{
										OFFSET -5.213303 0.000000 0.000000
										CHANNELS 3 Xrotation Yrotation Zrotation
										JOINT RightHandIndex3
										{
											OFFSET -6.386528 0.000000 0.000000
											CHANNELS 3 Xrotation Yrotation Zrotation
											JOINT RightHandIndex4
											{
												OFFSET -5.189026 0.000000 0.000000
												CHANNELS 3 Xrotation Yrotation Zrotation
												End Site
												{
													OFFSET 0.236702 5.183624 0.001972
												}
											}
										}
									}
								}
							}
						}
					}
				}
			}
		}
	}
	JOINT LeftUpLeg
	{
		OFFSET 14.073000 -7.904099 -1.463000
		CHANNELS 3 Xrotation Yrotation Zrotation
		JOINT LeftLeg
		{
			OFFSET -0.109806 -34.073280 4.093200
			CHANNELS 3 Xrotation Yrotation Zrotation
			JOINT LeftFoot
			{
				OFFSET 0.109806 -29.899420 -6.319000
				CHANNELS 3 Xrotation Yrotation Zrotation
				JOINT LeftToeBase
				{
					OFFSET 1.551100 -14.988700 20.535801
					CHANNELS 3 Xrotation Yrotation Zrotation
					JOINT LeftToe_End
					{
						OFFSET 0.221200 0.570800 13.248301
						CHANNELS 3 Xrotation Yrotation Zrotation
						End Site
						{
							OFFSET 0.000000 13.262435 0.000000
						}
					}
				}
			}
		}
	}
	JOINT RightUpLeg
	{
		OFFSET -13.839300 -7.904099 -1.463000
		CHANNELS 3 Xrotation Yrotation Zrotation
		JOINT RightLeg
		{
			OFFSET 0.109694 -34.073219 4.093300
			CHANNELS 3 Xrotation Yrotation Zrotation
			JOINT RightFoot
			{
				OFFSET -0.109694 -29.899384 -6.319200
				CHANNELS 3 Xrotation Yrotation Zrotation
				JOINT RightToeBase
				{
					OFFSET -1.551100 -14.988700 20.535801
					CHANNELS 3 Xrotation Yrotation Zrotation
					JOINT RightToe_End
					{
						OFFSET -0.221200 0.570900 13.248299
						CHANNELS 3 Xrotation Yrotation Zrotation
						End Site
						{
							OFFSET 0.000000 13.262440 0.000000
						}
					}
				}
			}
		}
	}
}
MOTION
Frames: 6
Frame Time: 0.033333
-0.282563 76.806755 -0.260921 9.538445 -61.600943 10.133509 15.067129 -0.338232 -4.267825 5.872804 0.571238 -2.801506 5.868648 0.648831 -2.855435 -3.633841 1.441469 3.748052 -20.005501 54.833630 2.407772 0.000001 0.000000 0.000001 1.828127 -3.192697 -12.271611 -39.387184 26.350431 -34.911153 0.429465 -46.808779 0.421277 -10.315144 -0.130524 0.363126 6.882181 2.840043 -61.140432 8.247984 7.640062 -89.897850 2.146130 8.173444 -41.827764 -0.000003 -0.000002 -0.000006 40.109893 -15.297255 -0.360511 5.639817 28.097947 11.338799 1.088582 40.896260 22.734022 0.000001 -0.000001 0.000000 0.639281 7.258920 8.704436 7.936543 -9.680378 53.429927 -22.866635 36.192619 17.964396 -27.375436 10.434364 -17.812881 -2.346136 -6.100506 10.731434 2.364030 -23.806245 -8.771134 -5.012461 13.984844 5.861538 -0.000000 -0.000000 -0.000000 -0.054721 0.532096 0.738691 0.019730 -0.087351 5.078566 -0.004018 -2.004383 -2.834005 0.000002 -0.000001 -0.000000 -36.360191 10.828876 26.537679 36.965137 -8.451519 0.825602 -6.674620 -1.257092 -18.601110 -1.836455 -0.000599 -0.000034 -0.000000 -0.000002 -0.000000 -28.592335 -19.586515 -35.875466 36.370645 5.996776 -3.533607 -14.562621 -1.218720 25.669775 -0.001709 -0.000471 -0.000006 -0.000000 -0.000000 0.000000 
-0.325800 75.211479 0.907830 12.572244 -62.754870 11.929705 15.532576 -0.826826 -4.429106 6.201451 0.504112 -2.830016 5.926932 0.547842 -2.914955 -3.664216 1.445529 3.724441 -20.005730 54.828425 2.408173 0.000000 0.000000 0.000000 1.698189 -3.415418 -13.082495 -40.618380 29.984073 -33.655928 0.358584 -50.025808 0.461772 -10.299042 -0.252069 0.341177 6.882183 2.840047 -61.140425 8.247981 7.640061 -89.897850 2.146124 8.173441 -41.827757 -0.000005 -0.000001 0.000000 40.109893 -15.297254 -0.360509 5.639812 28.097949 11.338800 1.088582 40.896263 22.734027 -0.000000 0.000001 -0.000000 0.637890 6.985527 8.710873 5.624707 -7.649971 53.086559 -22.858514 36.561565 18.017409 -26.959503 10.474312 -17.632659 -5.649436 -6.654616 11.605536 2.365525 -23.805689 -8.771229 -5.012497 13.984880 5.861467 0.000000 -0.000000 0.000002 -0.069055 0.865230 -1.340908 0.031123 -0.196304 5.833995 -0.006347 -2.057632 -2.480612 0.000000 -0.000001 0.000002 -39.683426 8.780168 28.047805 44.418855 -7.780334 0.767218 -11.316444 -0.512787 -18.421290 -1.836394 -0.000606 -0.000017 -0.000000 0.000001 0.000000 -31.758122 -18.881986 -36.733010 39.382471 8.292142 -3.609926 -15.719645 -1.530337 25.889970 -0.001700 -0.000444 0.000093 -0.000000 0.000000 0.000000 
-0.403432 73.429245 2.335583 16.176736 -63.978150 14.214027 16.015783 -1.353175 -4.854205 6.565764 0.432645 -2.909099 6.074708 0.426711 -3.082444 -3.688268 1.450636 3.693692 -20.004997 54.810984 2.408431 0.000000 -0.000000 0.000001 1.564637 -3.663124 -13.919098 -42.017917 33.832628 -32.262385 0.497317 -53.630666 0.683976 -10.120492 -0.679173 0.247227 6.882182 2.840047 -61.140432 8.247984 7.640062 -89.897850 2.146129 8.173441 -41.827761 0.000000 -0.000003 -0.000003 40.109897 -15.297255 -0.360510 5.639812 28.097950 11.338802 1.088584 40.896270 22.734027 0.000002 -0.000002 0.000000 0.636204 6.667723 8.717943 3.120987 -5.478893 53.019627 -22.815210 37.249027 18.010750 -26.719509 10.215721 -17.098574 -12.930254 -8.013148 13.801990 2.366872 -23.805195 -8.771421 -5.012570 13.984846 5.861419 -0.000002 0.000001 -0.000001 -0.049524 1.604263 -5.965574 0.063539 -0.447754 7.580220 -0.009126 -2.187230 -1.618976 0.000001 -0.000000 -0.000001 -42.760894 6.654663 29.366163 51.970872 -6.921370 0.746238 -16.287809 0.251219 -18.358164 -1.836292 -0.000598 -0.000027 -0.000000 -0.000000 -0.000000 -34.863673 -17.912210 -37.698922 42.155238 10.186603 -3.625610 -16.702912 -1.465966 26.487400 -0.001677 -0.000369 0.000149 0.000000 0.000000 0.000000 
-0.528236 71.724693 4.134414 20.247857 -65.185802 16.933839 16.451733 -1.903193 -5.440299 6.908486 0.350137 -3.017887 6.222457 0.287404 -3.314884 -3.707882 1.454673 3.669635 -20.006720 54.813419 2.411747 0.000001 -0.000000 0.000001 1.426559 -3.922941 -14.774671 -43.786560 37.560610 -30.457480 0.761893 -57.151167 1.022649 -9.806812 -1.258912 0.114892 6.882179 2.840043 -61.140425 8.247982 7.640063 -89.897843 2.146132 8.173441 -41.827764 0.000001 -0.000002 -0.000002 40.109897 -15.297254 -0.360511 5.639814 28.097947 11.338800 1.088584 40.896267 22.734025 -0.000002 0.000001 0.000000 0.634866 6.370281 8.724283 0.587797 -3.248025 53.308339 -22.640576 38.211818 17.867164 -26.600430 9.750393 -16.684036 -20.337672 -9.679474 16.424428 2.368361 -23.804712 -8.771604 -5.012592 13.984905 5.861369 0.000000 0.000000 0.000000 0.052004 2.354561 -10.761142 0.106375 -0.730691 9.551333 -0.007106 -2.349275 -0.541577 0.000003 -0.000000 0.000002 -45.230629 4.842137 30.199022 59.019917 -6.905858 0.667239 -21.415677 1.971983 -17.736505 -1.836212 -0.000537 -0.000022 0.000000 0.000003 0.000000 -37.372374 -16.950392 -38.748442 43.602019 11.167941 -3.476851 -17.018186 -0.583966 27.782174 -0.001687 -0.000369 0.000222 0.000000 0.000000 0.000000 
-0.687106 70.335030 5.720152 24.627140 -66.302306 19.969492 16.772880 -2.447992 -6.103361 7.186604 0.280789 -3.110420 6.303024 0.166276 -3.548702 -3.724816 1.459070 3.645286 -20.007685 54.799660 2.413482 -0.000001 -0.000000 0.000001 1.276970 -4.181549 -15.642537 -46.127030 40.738656 -27.943634 1.183859 -60.179970 1.499779 -9.394915 -1.951565 -0.094593 6.882181 2.840046 -61.140425 8.247983 7.640058 -89.897850 2.146127 8.173442 -41.827761 0.000000 -0.000002 -0.000003 40.109897 -15.297255 -0.360504 5.639811 28.097945 11.338811 1.088582 40.896267 22.734022 0.000002 0.000003 -0.000000 0.634141 6.158133 8.728707 -1.770284 -1.092170 53.909802 -22.342384 39.443489 17.598078 -26.545564 9.134469 -16.853084 -24.207946 -10.703756 17.953443 2.369367 -23.802939 -8.771539 -5.014072 13.989006 5.863716 0.000003 0.000000 0.000002 0.174024 2.737946 -13.321720 0.143613 -0.935208 10.984381 -0.006438 -2.499853 0.459873 0.000000 -0.000000 -0.000000 -46.971337 3.330680 30.984597 64.480257 -5.730293 0.665596 -25.720015 2.632818 -17.864469 -1.836179 -0.000618 -0.000019 -0.000000 0.000002 0.000000 -39.374340 -16.145819 -39.368954 44.108959 11.622043 -3.126516 -16.886381 0.581316 28.997035 -0.001688 -0.000314 0.000324 -0.000000 0.000000 0.000000 
-0.895797 69.494019 6.915675 29.084926 -67.268737 23.135329 16.742651 -2.974588 -6.744970 7.333063 0.225282 -3.118595 5.853661 0.069601 -3.734081 -3.715983 1.458145 3.648253 -20.007345 54.810011 2.411801 0.000001 -0.000001 0.000000 1.123457 -4.427153 -16.517078 -49.356948 42.867941 -24.161301 1.735035 -61.736359 2.061679 -8.963326 -2.592220 -0.715301 6.882183 2.840045 -61.140425 8.247981 7.640061 -89.897850 2.146130 8.173440 -41.827761 -0.000001 -0.000004 -0.000002 40.109897 -15.297255 -0.360509 5.639813 28.097943 11.338798 1.088583 40.896260 22.734027 -0.000001 0.000000 -0.000000 0.634591 6.096471 8.730214 -3.846831 0.890242 54.753102 -22.370290 40.752313 17.511767 -25.799627 7.887068 -18.471015 -24.211296 -10.676858 17.789103 2.386781 -23.885412 -8.799772 -4.908235 13.726188 5.697622 -0.000001 0.000000 -0.000001 0.207526 2.613396 -13.179991 0.153042 -0.982909 11.320868 -0.004933 -2.622237 1.274391 0.000001 -0.000002 0.000001 -47.941231 2.267129 31.691699 67.942405 -4.931447 0.653376 -28.831256 3.576567 -18.027664 -1.836038 -0.000640 -0.000032 0.000000 -0.000002 -0.000000 -40.659051 -15.720734 -39.324391 43.514128 12.079081 -2.503687 -16.279679 1.411092 29.655069 -0.001659 -0.000301 0.000388 -0.000000 0.000000 0.000000 
